<?xml version="1.0" encoding="UTF-8" standalone="no"?>
<!DOCTYPE svg PUBLIC "-//W3C//DTD SVG 1.1//EN" "http://www.w3.org/Graphics/SVG/1.1/DTD/svg11.dtd">
<svg width="100%" height="100%" viewBox="0 0 6667 5334" version="1.1" xmlns="http://www.w3.org/2000/svg" xmlns:xlink="http://www.w3.org/1999/xlink" xml:space="preserve" xmlns:serif="http://www.serif.com/" style="fill-rule:evenodd;clip-rule:evenodd;stroke-linejoin:round;stroke-miterlimit:2;">
    <g transform="matrix(3.10281,0,0,-3.10281,-4451.45,8877.4)">
        <g id="g14">
            <g id="g16">
                <g id="g22">
                    <path id="path24" d="M3054.96,1840.01C3037.33,1840.01 3023.04,1854.31 3023.04,1871.93C3023.04,1889.56 3037.33,1903.86 3054.96,1903.86C3072.59,1903.86 3086.88,1889.56 3086.88,1871.93C3086.88,1854.31 3072.59,1840.01 3054.96,1840.01M3167.57,1838.61C3167.57,1838.63 3167.57,1838.65 3167.56,1838.67C3167,1974.33 3041.61,2027.75 3041.64,2028.04L3051.52,2114.63C3051.93,2118.13 3050.63,2121.63 3048,2123.99C3045.37,2126.35 3041.78,2127.31 3038.33,2126.57C3011.26,2120.58 2985.03,2110.89 2960.16,2097.66L2964.32,2134.06C2964.73,2137.52 2963.43,2140.97 2960.88,2143.34C2958.3,2145.71 2954.87,2146.77 2951.38,2146.02C2870.42,2130.17 2799.31,2083.91 2753.9,2018.13C2668.43,2127.45 2541.57,2199.45 2403.48,2216.5C2291.83,2230.19 2184.42,2208.66 2090.36,2154.08C2150,2331.12 2295.71,2470.22 2476.62,2520.72C2511.92,2530.53 2548.25,2536.99 2584.7,2539.86C2743.93,2552.41 2902.01,2496.93 3020,2386.4C3046.98,2369.08 3084.93,2374.64 3105.8,2399.03C3127.09,2424.06 3126.59,2461.33 3104.7,2485.74C2954.38,2654.76 2729.94,2745.07 2504.34,2727.29C2404.59,2719.43 2309.07,2691.51 2220.42,2644.39C1923.36,2486.42 1774.17,2148.49 1857.61,1822.54C1940.99,1496.64 2234.2,1271.88 2570.64,1276.03C2570.89,1276 2571.11,1276.02 2571.36,1276.04C2575.49,1276.37 2579.14,1279.01 2580.68,1282.9C2582.32,1287.06 2581.26,1291.73 2578.11,1294.82C2453.55,1414.77 2436.7,1483.44 2444.49,1519.91C2449.82,1544.7 2467.11,1557.46 2476.79,1562.85C2665.46,1333.36 2890.55,1338.63 2934.11,1342.07C2941.34,1342.64 2945.24,1343.24 2945.24,1343.24C2948.92,1343.79 2952.11,1346.23 2953.6,1349.68C2955.08,1353.1 2954.24,1356.82 2952.6,1360.19C2754.86,1765.63 3199.76,1560.66 3196.72,1769.86C3190.13,1787.94 3167,1813.67 3167.57,1838.61" style="fill:rgb(29,29,27);fill-rule:nonzero;"/>
                </g>
            </g>
        </g>
    </g>
</svg>
