<svg width="6666.6665" height="5333.3335" xmlns="http://www.w3.org/2000/svg" xmlns:svg="http://www.w3.org/2000/svg">
 <metadata id="metadata8">image/svg+xml</metadata>
 <defs>
  <clipPath clipPathUnits="userSpaceOnUse" id="clipPath20">
   <path d="m0,4000l5000,0l0,-4000l-5000,0l0,4000z" id="path18"/>
  </clipPath>
 </defs>
 <g>
  <title>Layer 1</title>
  <path fill="#f6f6f6" fill-rule="nonzero" d="m0,5333.3333l6666.6665,0l0,-5333.3332l-6666.6665,0l0,5333.3332z" id="path12"/>
  <g transform="matrix(3.1028056762751017,0,0,-3.1028056762751017,-4451.449425516625,8877.400182644591) " id="g14">
   <g id="g16" clip-path="url(#clipPath20)">
    <g id="g22">
     <path fill="#1d1d1b" fill-rule="nonzero" d="m3054.962891,1840.013672c-17.63,0 -31.921,14.291 -31.921,31.921c0,17.629 14.291,31.921 31.921,31.921c17.63,0 31.921,-14.292 31.921,-31.921c0,-17.63 -14.291,-31.921 -31.921,-31.921m112.604,-1.404c-0.001,0.02 -0.002,0.04 -0.003,0.06c-0.564,135.663 -125.956,189.083 -125.924,189.372l9.884,86.587c0.41,3.502 -0.894,6.997 -3.522,9.361c-2.629,2.363 -6.217,3.323 -9.671,2.579c-27.074,-5.989 -53.299,-15.681 -78.175,-28.908l4.159,36.398c0.413,3.46 -0.888,6.913 -3.431,9.284c-2.586,2.366 -6.011,3.424 -9.507,2.677c-80.96,-15.847 -152.069,-62.105 -197.479,-127.886c-85.468,109.317 -212.333,181.314 -350.42,198.364c-111.648,13.693 -219.062,-7.838 -313.12,-62.416c59.646,177.043 205.348,316.143 386.263,366.641c35.298,9.807 71.631,16.269 108.074,19.141c159.231,12.547 317.311,-42.939 435.303,-153.463c26.983,-17.322 64.929,-11.762 85.797,12.63c21.29,25.025 20.795,62.299 -1.092,86.707c-150.319,169.022 -374.76,259.333 -600.364,241.555c-99.753,-7.86 -195.27,-35.779 -283.918,-82.904c-297.065,-157.968 -446.248,-495.902 -362.816,-821.846c83.386,-325.904 376.597,-550.667 713.03,-546.518c0.259,-0.023 0.472,-0.006 0.727,0.014c4.13,0.326 7.778,2.969 9.313,6.86c1.642,4.157 0.59,8.829 -2.567,11.922c-124.562,119.944 -141.411,188.616 -133.618,225.087c5.328,24.794 22.616,37.552 32.301,42.942c188.67,-229.488 413.761,-224.217 457.315,-220.784c7.238,0.57 11.13,1.177 11.13,1.177c3.685,0.547 6.877,2.984 8.361,6.442c1.487,3.416 0.645,7.131 -0.999,10.504c-197.734,405.443 247.167,200.476 244.126,409.673c-6.591,18.078 -29.724,43.805 -29.157,68.748" id="path24"/>
    </g>
   </g>
  </g>
 </g>
</svg>